GIL02_free2_RRA_states
nRows=4
nColumns=47

# SIMM Motion File Header:
name GIL02_free2_RRA_states
datacolumns 47
datarows 4
otherdata 1
range 0.81850000000000056000 0.82000000000000062000
endheader
time	pelvis_tx	pelvis_ty	pelvis_tz	pelvis_tilt	pelvis_list	pelvis_rotation	hip_flexion_r	hip_adduction_r	hip_rotation_r	knee_angle_r	ankle_angle_r	subtalar_angle_r	mtp_angle_r	hip_flexion_l	hip_adduction_l	hip_rotation_l	knee_angle_l	ankle_angle_l	subtalar_angle_l	mtp_angle_l	lumbar_extension	lumbar_bending	lumbar_rotation	pelvis_tx_u	pelvis_ty_u	pelvis_tz_u	pelvis_tilt_u	pelvis_list_u	pelvis_rotation_u	hip_flexion_r_u	hip_adduction_r_u	hip_rotation_r_u	knee_angle_r_u	ankle_angle_r_u	subtalar_angle_r_u	mtp_angle_r_u	hip_flexion_l_u	hip_adduction_l_u	hip_rotation_l_u	knee_angle_l_u	ankle_angle_l_u	subtalar_angle_l_u	mtp_angle_l_u	lumbar_extension_u	lumbar_bending_u	lumbar_rotation_u
      0.81850000000000056000	      1.97277788501618030000	      0.95078698340751355000	     -0.26748249943745112000	      0.08344965891557068500	      5.62198629899263920000	     -4.48344407311822750000	     18.43473271484047900000	     -7.16495472221765620000	      6.79703370827570820000	    -62.63947798562742300000	    -13.71454684166067000000	      0.00000000000003329318	     -0.00000000000012946912	      5.85134415674268740000	      9.17957055317723560000	      5.02571888905767940000	    -10.13787055216130500000	      4.12560217048263580000	      0.00000000000004470334	     -0.00000000000006608909	     -2.36229762702237120000	     -3.95882758279606950000	      2.91778214373888470000	      1.04290313052802450000	      0.11177453716974592000	     -0.14831659543714143000	      9.40730882573771860000	    -25.75107196273326700000	      8.37172186450580650000	    115.33915156918070000000	     50.25902681633005600000	     75.02690171575817100000	     71.11644524130467500000	    198.54191287994038000000	     -0.00000000000016366749	     -0.00000000000013449241	   -107.98408983367777000000	     -7.16551853185635150000	     -3.04824435835017660000	     34.17285268188718600000	     55.05674159775403400000	      0.00000000000030086694	     -0.00000000000079867024	    -19.80032179248949500000	     38.74498153816446000000	    -28.65822909990948000000
      0.81900000000000062000	      1.97329929742030720000	      0.95084269102452479000	     -0.26755660642185375000	      0.08816235588559910600	      5.60911328110443730000	     -4.47924130417379820000	     18.49224955285691900000	     -7.13979651391269240000	      6.83473741958376380000	    -62.60344947285981500000	    -13.61565528336955600000	      0.00000000000003321123	     -0.00000000000012953599	      5.79734495583126370000	      9.17596332916902920000	      5.02422843874972800000	    -10.12076910064910800000	      4.15310796370412220000	      0.00000000000004485597	     -0.00000000000006649386	     -2.37220663753642350000	     -3.93946662909381250000	      2.90350463328073660000	      1.04274595072279650000	      0.11105496365960092000	     -0.14811026577827044000	      9.44361529741798300000	    -25.74113763745245000000	      8.43936335951700660000	    114.72792092049093000000	     50.37369573102734000000	     75.78707771110697400000	     72.99734194286496300000	    197.02670320245755000000	     -0.00000000000016364657	     -0.00000000000013325195	   -108.01282875770058000000	     -7.26377241419305710000	     -2.91273214566389700000	     34.23299898932347000000	     54.96633548099265500000	      0.00000000000031361568	     -0.00000000000082493380	    -19.83610046800316000000	     38.69868401629028700000	    -28.45204987118194900000
      0.81950000000000056000	      1.97382063043825710000	      0.95089803740944445000	     -0.26763060863777177000	      0.09289341177898667600	      5.59624501600247990000	     -4.47500469036517060000	     18.54946035052503100000	     -7.11458113481935060000	      6.87281989331002750000	    -62.56648090505534300000	    -13.51751770008254500000	      0.00000000000003312937	     -0.00000000000012960252	      5.74333120888917480000	      9.17230638362746480000	      5.02280701704644890000	    -10.10363751170213000000	      4.18056845924783540000	      0.00000000000004501386	     -0.00000000000006690782	     -2.38213410909965880000	     -3.92012903938973610000	      2.88932984258198380000	      1.04258559924343670000	      0.11032962064410388000	     -0.14789754355752274000	      9.48074712738362280000	    -25.73207542408643900000	      8.50712106126405310000	    114.11497965584923000000	     50.48771446969652000000	     76.54189671475279500000	     74.87666810254415900000	    195.52612559327582000000	     -0.00000000000016403955	     -0.00000000000013353249	   -108.04228224204891000000	     -7.36440898981190450000	     -2.77205939924619220000	     34.29339409143609900000	     54.87564992921498700000	      0.00000000000032187119	     -0.00000000000084022741	    -19.87416874661837000000	     38.65154287855326500000	    -28.24737853699069800000
      0.82000000000000062000	      1.97434188249445990000	      0.95095301968898005000	     -0.26770450290693365000	      0.09764324039220125000	      5.58338106104234290000	     -4.47073416060215670000	     18.60636424798049000000	     -7.08930891416684790000	      6.91127840452893060000	    -62.52857306519599900000	    -13.42012667370712500000	      0.00000000000003304713	     -0.00000000000012966885	      5.68930255390402720000	      9.16859853105530040000	      5.02145724955104280000	    -10.08647566788806800000	      4.20798358168241200000	      0.00000000000004517569	     -0.00000000000006732762	     -2.39208118663369170000	     -3.90081522674637780000	      2.87525699597156590000	      1.04242209743784950000	      0.10959854140262705000	     -0.14767847074855209000	      9.51870320108803190000	    -25.72388104834435700000	      8.57501374333610760000	    113.50033193618584000000	     50.60104473086587300000	     77.29124414662621200000	     76.75442931429317600000	    194.04045426119842000000	     -0.00000000000016422844	     -0.00000000000013070290	   -108.07245383192948000000	     -7.46738014833167090000	     -2.62616562829280390000	     34.35402115347204000000	     54.78477356350195700000	      0.00000000000032507306	     -0.00000000000082849737	    -19.91451910247460000000	     38.60355860893769600000	    -28.04426009436932100000
